<?xml version="1.0" encoding="utf-8"?>
<!-- Generator: Adobe Illustrator 16.0.0, SVG Export Plug-In . SVG Version: 6.00 Build 0)  -->
<!DOCTYPE svg PUBLIC "-//W3C//DTD SVG 1.1//EN" "http://www.w3.org/Graphics/SVG/1.1/DTD/svg11.dtd">
<svg version="1.1" id="圖層_1" xmlns="http://www.w3.org/2000/svg" xmlns:xlink="http://www.w3.org/1999/xlink" x="0px" y="0px"
	 width="88.744px" height="62.656px" viewBox="0 0 88.744 62.656" enable-background="new 0 0 88.744 62.656" xml:space="preserve">
<g>
	<polygon fill="#2B2C2C" points="75.553,57.709 75.553,23.797 52.316,47.033 52.316,57.709 39.575,57.709 39.575,34.59 
		16.34,11.355 16.34,57.709 0,57.709 0,62.206 20.836,62.206 20.836,22.213 23.984,25.36 23.984,62.656 28.482,62.656 
		28.482,29.857 35.078,36.453 35.078,62.206 56.814,62.206 56.814,48.896 63.747,41.963 63.747,62.656 68.244,62.656 68.244,37.465 
		71.055,34.654 71.055,62.206 88.744,62.206 88.744,57.709 	"/>
	<polygon fill="#2B2C2C" points="45.834,6.361 66.279,26.807 69.46,23.627 45.834,0 28.391,17.443 31.571,20.623 	"/>
	<rect x="40.605" y="17.498" fill="#2B2C2C" width="3.978" height="3.977"/>
	<rect x="47.215" y="17.498" fill="#2B2C2C" width="3.977" height="3.977"/>
	<rect x="40.605" y="23.756" fill="#2B2C2C" width="3.978" height="3.977"/>
	<rect x="47.215" y="23.756" fill="#2B2C2C" width="3.977" height="3.977"/>
</g>
</svg>
